<svg width="52" height="53" viewBox="0 0 52 53" fill="none" xmlns="http://www.w3.org/2000/svg">
<rect y="0.706543" width="52" height="52" rx="15" fill="#EBD96B"/>
<path d="M20.875 34.7065H17.4766V22.0269H20.875V34.7065ZM17.2773 18.7456C17.2773 18.2378 17.4453 17.8198 17.7812 17.4917C18.125 17.1636 18.5898 16.9995 19.1758 16.9995C19.7539 16.9995 20.2148 17.1636 20.5586 17.4917C20.9023 17.8198 21.0742 18.2378 21.0742 18.7456C21.0742 19.2612 20.8984 19.6831 20.5469 20.0112C20.2031 20.3394 19.7461 20.5034 19.1758 20.5034C18.6055 20.5034 18.1445 20.3394 17.793 20.0112C17.4492 19.6831 17.2773 19.2612 17.2773 18.7456ZM27.273 22.0269L27.3784 23.4917C28.2847 22.3589 29.4995 21.7925 31.023 21.7925C32.3667 21.7925 33.3667 22.187 34.023 22.9761C34.6792 23.7651 35.0152 24.9448 35.0308 26.5151V34.7065H31.6441V26.5972C31.6441 25.8784 31.4878 25.3589 31.1753 25.0386C30.8628 24.7104 30.3433 24.5464 29.6167 24.5464C28.6636 24.5464 27.9488 24.9526 27.4722 25.7651V34.7065H24.0855V22.0269H27.273Z" fill="black"/>
</svg>
