<svg width="52" height="53" viewBox="0 0 52 53" fill="none" xmlns="http://www.w3.org/2000/svg">
<rect y="0.706543" width="52" height="52" rx="15" fill="#EBD96B"/>
<path d="M38.4302 21.7668C38.446 21.9889 38.446 22.211 38.446 22.4331C38.446 29.2065 33.2906 37.0111 23.868 37.0111C20.9651 37.0111 18.2684 36.1703 16 34.711C16.4125 34.7585 16.809 34.7744 17.2373 34.7744C19.6326 34.7744 21.8375 33.9654 23.5983 32.5854C21.3458 32.5377 19.4581 31.0625 18.8077 29.032C19.125 29.0796 19.4422 29.1113 19.7754 29.1113C20.2354 29.1113 20.6955 29.0479 21.1237 28.9369C18.776 28.4609 17.0152 26.3988 17.0152 23.9083V23.8449C17.6973 24.2256 18.4905 24.4635 19.3312 24.4952C17.9511 23.5751 17.0469 22.0047 17.0469 20.2281C17.0469 19.2763 17.3007 18.4039 17.7449 17.6424C20.2671 20.7516 24.0583 22.782 28.3096 23.0041C28.2303 22.6234 28.1827 22.2269 28.1827 21.8303C28.1827 19.0066 30.4669 16.7065 33.3064 16.7065C34.7816 16.7065 36.1141 17.3252 37.05 18.3246C38.208 18.1025 39.3184 17.6742 40.302 17.0873C39.9212 18.277 39.1122 19.2764 38.0494 19.9108C39.0805 19.7999 40.0799 19.5143 40.9999 19.1177C40.302 20.1329 39.4295 21.0371 38.4302 21.7668Z" fill="black"/>
</svg>
