<svg width="52" height="53" viewBox="0 0 52 53" fill="none" xmlns="http://www.w3.org/2000/svg">
<rect y="0.706543" width="52" height="52" rx="15" fill="#EBD96B"/>
<path d="M25.946 21.0374C22.8406 21.0374 20.3357 23.5422 20.3357 26.6477C20.3357 29.7532 22.8406 32.2581 25.946 32.2581C29.0515 32.2581 31.5564 29.7532 31.5564 26.6477C31.5564 23.5422 29.0515 21.0374 25.946 21.0374ZM25.946 30.2952C23.9392 30.2952 22.2986 28.6594 22.2986 26.6477C22.2986 24.636 23.9343 23.0002 25.946 23.0002C27.9578 23.0002 29.5935 24.636 29.5935 26.6477C29.5935 28.6594 27.9529 30.2952 25.946 30.2952ZM33.0945 20.8079C33.0945 21.5354 32.5085 22.1165 31.7859 22.1165C31.0584 22.1165 30.4773 21.5305 30.4773 20.8079C30.4773 20.0852 31.0632 19.4993 31.7859 19.4993C32.5085 19.4993 33.0945 20.0852 33.0945 20.8079ZM36.8103 22.136C36.7273 20.3831 36.3269 18.8303 35.0427 17.551C33.7634 16.2717 32.2107 15.8713 30.4578 15.7834C28.6511 15.6809 23.2361 15.6809 21.4294 15.7834C19.6814 15.8665 18.1287 16.2668 16.8445 17.5461C15.5603 18.8254 15.1648 20.3782 15.0769 22.1311C14.9744 23.9377 14.9744 29.3528 15.0769 31.1594C15.1599 32.9124 15.5603 34.4651 16.8445 35.7444C18.1287 37.0237 19.6765 37.4241 21.4294 37.512C23.2361 37.6145 28.6511 37.6145 30.4578 37.512C32.2107 37.429 33.7634 37.0286 35.0427 35.7444C36.322 34.4651 36.7224 32.9124 36.8103 31.1594C36.9128 29.3528 36.9128 23.9426 36.8103 22.136ZM34.4763 33.0979C34.0955 34.0549 33.3582 34.7922 32.3962 35.178C30.9558 35.7493 27.5378 35.6174 25.946 35.6174C24.3542 35.6174 20.9314 35.7444 19.4958 35.178C18.5388 34.7971 17.8015 34.0598 17.4158 33.0979C16.8445 31.6575 16.9763 28.2395 16.9763 26.6477C16.9763 25.0559 16.8494 21.6331 17.4158 20.1975C17.7966 19.2405 18.5339 18.5032 19.4958 18.1174C20.9363 17.5461 24.3542 17.678 25.946 17.678C27.5378 17.678 30.9607 17.551 32.3962 18.1174C33.3533 18.4983 34.0906 19.2356 34.4763 20.1975C35.0476 21.6379 34.9158 25.0559 34.9158 26.6477C34.9158 28.2395 35.0476 31.6624 34.4763 33.0979Z" fill="black"/>
</svg>
